<svg xmlns="http://www.w3.org/2000/svg" width="1200" height="532" viewBox="0 0 1200 532" role="img" aria-labelledby="title" font-family="-apple-system, BlinkMacSystemFont, 'Segoe UI', 'Noto Sans', Helvetica, Arial, sans-serif">
  <title id="title">GitHub activity: 1,987 contributions in the last 12 months, 199 active days. Top languages: TypeScript 70%, JavaScript 11%, Dart 9%, CSS 5%, HTML 3%, Other 2%.</title>
  <rect x="0.5" y="0.5" width="1199" height="531" rx="19.5" fill="#ffffff" stroke="#e4e7ec"/>
  <text x="40" y="54" font-size="22" font-weight="700" fill="#0b0b0b">GitHub activity</text>
  <text x="1160" y="54" text-anchor="end" font-family="ui-monospace, SFMono-Regular, 'SF Mono', Menlo, Consolas, 'Liberation Mono', monospace" font-size="12" fill="#8b8f98">auto-updated 2026-10-03</text>
  <g transform="translate(40,84)">
      <rect width="211.2" height="108" rx="12" fill="#f7f8fa" stroke="#e4e7ec"/>
      <text x="18" y="30" font-size="15" fill="#52514e">Contributions · 12 mo</text>
      <text x="18" y="72" font-size="34" font-weight="700" fill="#0b0b0b" letter-spacing="-0.5">1,987</text>
      
    </g>
<g transform="translate(267.2,84)">
      <rect width="211.2" height="108" rx="12" fill="#f7f8fa" stroke="#e4e7ec"/>
      <text x="18" y="30" font-size="15" fill="#52514e">Last 30 days</text>
      <text x="18" y="72" font-size="34" font-weight="700" fill="#0b0b0b" letter-spacing="-0.5">450</text>
      <text x="18" y="94" font-size="13" fill="#52514e">▲ 9% vs prior 30</text>
    </g>
<g transform="translate(494.4,84)">
      <rect width="211.2" height="108" rx="12" fill="#f7f8fa" stroke="#e4e7ec"/>
      <text x="18" y="30" font-size="15" fill="#52514e">Active days</text>
      <text x="18" y="72" font-size="34" font-weight="700" fill="#0b0b0b" letter-spacing="-0.5">199</text>
      <text x="18" y="94" font-size="13" fill="#52514e">of 371</text>
    </g>
<g transform="translate(721.5999999999999,84)">
      <rect width="211.2" height="108" rx="12" fill="#f7f8fa" stroke="#e4e7ec"/>
      <text x="18" y="30" font-size="15" fill="#52514e">Best day</text>
      <text x="18" y="72" font-size="34" font-weight="700" fill="#0b0b0b" letter-spacing="-0.5">75</text>
      <text x="18" y="94" font-size="13" fill="#52514e">Sep 28, 2026</text>
    </g>
<g transform="translate(948.8,84)">
      <rect width="211.2" height="108" rx="12" fill="#f7f8fa" stroke="#e4e7ec"/>
      <text x="18" y="30" font-size="15" fill="#52514e">Original repos</text>
      <text x="18" y="72" font-size="34" font-weight="700" fill="#0b0b0b" letter-spacing="-0.5">30</text>
      <text x="18" y="94" font-size="13" fill="#52514e">public, non-fork</text>
    </g>
  <text x="141.5" y="246" font-size="13" fill="#52514e">Sep</text><text x="231.5" y="246" font-size="13" fill="#52514e">Nov</text><text x="321.5" y="246" font-size="13" fill="#52514e">Dec</text><text x="393.5" y="246" font-size="13" fill="#52514e">Jan</text><text x="465.5" y="246" font-size="13" fill="#52514e">Feb</text><text x="537.5" y="246" font-size="13" fill="#52514e">Mar</text><text x="627.5" y="246" font-size="13" fill="#52514e">Apr</text><text x="699.5" y="246" font-size="13" fill="#52514e">May</text><text x="789.5" y="246" font-size="13" fill="#52514e">Jun</text><text x="861.5" y="246" font-size="13" fill="#52514e">Jul</text><text x="933.5" y="246" font-size="13" fill="#52514e">Aug</text><text x="1023.5" y="246" font-size="13" fill="#52514e">Sep</text><text x="133.5" y="286" text-anchor="end" font-size="12" fill="#52514e">Mon</text><text x="133.5" y="322" text-anchor="end" font-size="12" fill="#52514e">Wed</text><text x="133.5" y="358" text-anchor="end" font-size="12" fill="#52514e">Fri</text>
  <rect x="141.5" y="256" width="15" height="15" rx="3" fill="#eef0f4"><title>0 on Sep 28, 2025</title></rect><rect x="141.5" y="274" width="15" height="15" rx="3" fill="#b7d3f6"><title>2 on Sep 29, 2025</title></rect><rect x="141.5" y="292" width="15" height="15" rx="3" fill="#b7d3f6"><title>1 on Sep 30, 2025</title></rect><rect x="141.5" y="310" width="15" height="15" rx="3" fill="#eef0f4"><title>0 on Oct 1, 2025</title></rect><rect x="141.5" y="328" width="15" height="15" rx="3" fill="#eef0f4"><title>0 on Oct 2, 2025</title></rect><rect x="141.5" y="346" width="15" height="15" rx="3" fill="#eef0f4"><title>0 on Oct 3, 2025</title></rect><rect x="141.5" y="364" width="15" height="15" rx="3" fill="#eef0f4"><title>0 on Oct 4, 2025</title></rect><rect x="159.5" y="256" width="15" height="15" rx="3" fill="#eef0f4"><title>0 on Oct 5, 2025</title></rect><rect x="159.5" y="274" width="15" height="15" rx="3" fill="#b7d3f6"><title>2 on Oct 6, 2025</title></rect><rect x="159.5" y="292" width="15" height="15" rx="3" fill="#eef0f4"><title>0 on Oct 7, 2025</title></rect><rect x="159.5" y="310" width="15" height="15" rx="3" fill="#b7d3f6"><title>3 on Oct 8, 2025</title></rect><rect x="159.5" y="328" width="15" height="15" rx="3" fill="#2a78d6"><title>10 on Oct 9, 2025</title></rect><rect x="159.5" y="346" width="15" height="15" rx="3" fill="#b7d3f6"><title>2 on Oct 10, 2025</title></rect><rect x="159.5" y="364" width="15" height="15" rx="3" fill="#6da7ec"><title>5 on Oct 11, 2025</title></rect><rect x="177.5" y="256" width="15" height="15" rx="3" fill="#b7d3f6"><title>3 on Oct 12, 2025</title></rect><rect x="177.5" y="274" width="15" height="15" rx="3" fill="#6da7ec"><title>4 on Oct 13, 2025</title></rect><rect x="177.5" y="292" width="15" height="15" rx="3" fill="#eef0f4"><title>0 on Oct 14, 2025</title></rect><rect x="177.5" y="310" width="15" height="15" rx="3" fill="#eef0f4"><title>0 on Oct 15, 2025</title></rect><rect x="177.5" y="328" width="15" height="15" rx="3" fill="#eef0f4"><title>0 on Oct 16, 2025</title></rect><rect x="177.5" y="346" width="15" height="15" rx="3" fill="#eef0f4"><title>0 on Oct 17, 2025</title></rect><rect x="177.5" y="364" width="15" height="15" rx="3" fill="#eef0f4"><title>0 on Oct 18, 2025</title></rect><rect x="195.5" y="256" width="15" height="15" rx="3" fill="#eef0f4"><title>0 on Oct 19, 2025</title></rect><rect x="195.5" y="274" width="15" height="15" rx="3" fill="#eef0f4"><title>0 on Oct 20, 2025</title></rect><rect x="195.5" y="292" width="15" height="15" rx="3" fill="#eef0f4"><title>0 on Oct 21, 2025</title></rect><rect x="195.5" y="310" width="15" height="15" rx="3" fill="#eef0f4"><title>0 on Oct 22, 2025</title></rect><rect x="195.5" y="328" width="15" height="15" rx="3" fill="#eef0f4"><title>0 on Oct 23, 2025</title></rect><rect x="195.5" y="346" width="15" height="15" rx="3" fill="#eef0f4"><title>0 on Oct 24, 2025</title></rect><rect x="195.5" y="364" width="15" height="15" rx="3" fill="#eef0f4"><title>0 on Oct 25, 2025</title></rect><rect x="213.5" y="256" width="15" height="15" rx="3" fill="#eef0f4"><title>0 on Oct 26, 2025</title></rect><rect x="213.5" y="274" width="15" height="15" rx="3" fill="#eef0f4"><title>0 on Oct 27, 2025</title></rect><rect x="213.5" y="292" width="15" height="15" rx="3" fill="#eef0f4"><title>0 on Oct 28, 2025</title></rect><rect x="213.5" y="310" width="15" height="15" rx="3" fill="#eef0f4"><title>0 on Oct 29, 2025</title></rect><rect x="213.5" y="328" width="15" height="15" rx="3" fill="#6da7ec"><title>4 on Oct 30, 2025</title></rect><rect x="213.5" y="346" width="15" height="15" rx="3" fill="#b7d3f6"><title>2 on Oct 31, 2025</title></rect><rect x="213.5" y="364" width="15" height="15" rx="3" fill="#2a78d6"><title>15 on Nov 1, 2025</title></rect><rect x="231.5" y="256" width="15" height="15" rx="3" fill="#b7d3f6"><title>2 on Nov 2, 2025</title></rect><rect x="231.5" y="274" width="15" height="15" rx="3" fill="#eef0f4"><title>0 on Nov 3, 2025</title></rect><rect x="231.5" y="292" width="15" height="15" rx="3" fill="#eef0f4"><title>0 on Nov 4, 2025</title></rect><rect x="231.5" y="310" width="15" height="15" rx="3" fill="#eef0f4"><title>0 on Nov 5, 2025</title></rect><rect x="231.5" y="328" width="15" height="15" rx="3" fill="#eef0f4"><title>0 on Nov 6, 2025</title></rect><rect x="231.5" y="346" width="15" height="15" rx="3" fill="#eef0f4"><title>0 on Nov 7, 2025</title></rect><rect x="231.5" y="364" width="15" height="15" rx="3" fill="#eef0f4"><title>0 on Nov 8, 2025</title></rect><rect x="249.5" y="256" width="15" height="15" rx="3" fill="#6da7ec"><title>5 on Nov 9, 2025</title></rect><rect x="249.5" y="274" width="15" height="15" rx="3" fill="#eef0f4"><title>0 on Nov 10, 2025</title></rect><rect x="249.5" y="292" width="15" height="15" rx="3" fill="#6da7ec"><title>4 on Nov 11, 2025</title></rect><rect x="249.5" y="310" width="15" height="15" rx="3" fill="#eef0f4"><title>0 on Nov 12, 2025</title></rect><rect x="249.5" y="328" width="15" height="15" rx="3" fill="#b7d3f6"><title>1 on Nov 13, 2025</title></rect><rect x="249.5" y="346" width="15" height="15" rx="3" fill="#b7d3f6"><title>1 on Nov 14, 2025</title></rect><rect x="249.5" y="364" width="15" height="15" rx="3" fill="#eef0f4"><title>0 on Nov 15, 2025</title></rect><rect x="267.5" y="256" width="15" height="15" rx="3" fill="#b7d3f6"><title>2 on Nov 16, 2025</title></rect><rect x="267.5" y="274" width="15" height="15" rx="3" fill="#6da7ec"><title>6 on Nov 17, 2025</title></rect><rect x="267.5" y="292" width="15" height="15" rx="3" fill="#eef0f4"><title>0 on Nov 18, 2025</title></rect><rect x="267.5" y="310" width="15" height="15" rx="3" fill="#eef0f4"><title>0 on Nov 19, 2025</title></rect><rect x="267.5" y="328" width="15" height="15" rx="3" fill="#eef0f4"><title>0 on Nov 20, 2025</title></rect><rect x="267.5" y="346" width="15" height="15" rx="3" fill="#b7d3f6"><title>3 on Nov 21, 2025</title></rect><rect x="267.5" y="364" width="15" height="15" rx="3" fill="#b7d3f6"><title>1 on Nov 22, 2025</title></rect><rect x="285.5" y="256" width="15" height="15" rx="3" fill="#b7d3f6"><title>1 on Nov 23, 2025</title></rect><rect x="285.5" y="274" width="15" height="15" rx="3" fill="#6da7ec"><title>4 on Nov 24, 2025</title></rect><rect x="285.5" y="292" width="15" height="15" rx="3" fill="#eef0f4"><title>0 on Nov 25, 2025</title></rect><rect x="285.5" y="310" width="15" height="15" rx="3" fill="#eef0f4"><title>0 on Nov 26, 2025</title></rect><rect x="285.5" y="328" width="15" height="15" rx="3" fill="#eef0f4"><title>0 on Nov 27, 2025</title></rect><rect x="285.5" y="346" width="15" height="15" rx="3" fill="#eef0f4"><title>0 on Nov 28, 2025</title></rect><rect x="285.5" y="364" width="15" height="15" rx="3" fill="#eef0f4"><title>0 on Nov 29, 2025</title></rect><rect x="303.5" y="256" width="15" height="15" rx="3" fill="#eef0f4"><title>0 on Nov 30, 2025</title></rect><rect x="303.5" y="274" width="15" height="15" rx="3" fill="#eef0f4"><title>0 on Dec 1, 2025</title></rect><rect x="303.5" y="292" width="15" height="15" rx="3" fill="#b7d3f6"><title>2 on Dec 2, 2025</title></rect><rect x="303.5" y="310" width="15" height="15" rx="3" fill="#eef0f4"><title>0 on Dec 3, 2025</title></rect><rect x="303.5" y="328" width="15" height="15" rx="3" fill="#eef0f4"><title>0 on Dec 4, 2025</title></rect><rect x="303.5" y="346" width="15" height="15" rx="3" fill="#eef0f4"><title>0 on Dec 5, 2025</title></rect><rect x="303.5" y="364" width="15" height="15" rx="3" fill="#b7d3f6"><title>1 on Dec 6, 2025</title></rect><rect x="321.5" y="256" width="15" height="15" rx="3" fill="#eef0f4"><title>0 on Dec 7, 2025</title></rect><rect x="321.5" y="274" width="15" height="15" rx="3" fill="#eef0f4"><title>0 on Dec 8, 2025</title></rect><rect x="321.5" y="292" width="15" height="15" rx="3" fill="#eef0f4"><title>0 on Dec 9, 2025</title></rect><rect x="321.5" y="310" width="15" height="15" rx="3" fill="#eef0f4"><title>0 on Dec 10, 2025</title></rect><rect x="321.5" y="328" width="15" height="15" rx="3" fill="#eef0f4"><title>0 on Dec 11, 2025</title></rect><rect x="321.5" y="346" width="15" height="15" rx="3" fill="#eef0f4"><title>0 on Dec 12, 2025</title></rect><rect x="321.5" y="364" width="15" height="15" rx="3" fill="#b7d3f6"><title>1 on Dec 13, 2025</title></rect><rect x="339.5" y="256" width="15" height="15" rx="3" fill="#eef0f4"><title>0 on Dec 14, 2025</title></rect><rect x="339.5" y="274" width="15" height="15" rx="3" fill="#eef0f4"><title>0 on Dec 15, 2025</title></rect><rect x="339.5" y="292" width="15" height="15" rx="3" fill="#eef0f4"><title>0 on Dec 16, 2025</title></rect><rect x="339.5" y="310" width="15" height="15" rx="3" fill="#eef0f4"><title>0 on Dec 17, 2025</title></rect><rect x="339.5" y="328" width="15" height="15" rx="3" fill="#eef0f4"><title>0 on Dec 18, 2025</title></rect><rect x="339.5" y="346" width="15" height="15" rx="3" fill="#eef0f4"><title>0 on Dec 19, 2025</title></rect><rect x="339.5" y="364" width="15" height="15" rx="3" fill="#eef0f4"><title>0 on Dec 20, 2025</title></rect><rect x="357.5" y="256" width="15" height="15" rx="3" fill="#eef0f4"><title>0 on Dec 21, 2025</title></rect><rect x="357.5" y="274" width="15" height="15" rx="3" fill="#eef0f4"><title>0 on Dec 22, 2025</title></rect><rect x="357.5" y="292" width="15" height="15" rx="3" fill="#eef0f4"><title>0 on Dec 23, 2025</title></rect><rect x="357.5" y="310" width="15" height="15" rx="3" fill="#eef0f4"><title>0 on Dec 24, 2025</title></rect><rect x="357.5" y="328" width="15" height="15" rx="3" fill="#eef0f4"><title>0 on Dec 25, 2025</title></rect><rect x="357.5" y="346" width="15" height="15" rx="3" fill="#eef0f4"><title>0 on Dec 26, 2025</title></rect><rect x="357.5" y="364" width="15" height="15" rx="3" fill="#b7d3f6"><title>3 on Dec 27, 2025</title></rect><rect x="375.5" y="256" width="15" height="15" rx="3" fill="#eef0f4"><title>0 on Dec 28, 2025</title></rect><rect x="375.5" y="274" width="15" height="15" rx="3" fill="#eef0f4"><title>0 on Dec 29, 2025</title></rect><rect x="375.5" y="292" width="15" height="15" rx="3" fill="#eef0f4"><title>0 on Dec 30, 2025</title></rect><rect x="375.5" y="310" width="15" height="15" rx="3" fill="#eef0f4"><title>0 on Dec 31, 2025</title></rect><rect x="375.5" y="328" width="15" height="15" rx="3" fill="#b7d3f6"><title>1 on Jan 1, 2026</title></rect><rect x="375.5" y="346" width="15" height="15" rx="3" fill="#eef0f4"><title>0 on Jan 2, 2026</title></rect><rect x="375.5" y="364" width="15" height="15" rx="3" fill="#eef0f4"><title>0 on Jan 3, 2026</title></rect><rect x="393.5" y="256" width="15" height="15" rx="3" fill="#eef0f4"><title>0 on Jan 4, 2026</title></rect><rect x="393.5" y="274" width="15" height="15" rx="3" fill="#eef0f4"><title>0 on Jan 5, 2026</title></rect><rect x="393.5" y="292" width="15" height="15" rx="3" fill="#eef0f4"><title>0 on Jan 6, 2026</title></rect><rect x="393.5" y="310" width="15" height="15" rx="3" fill="#eef0f4"><title>0 on Jan 7, 2026</title></rect><rect x="393.5" y="328" width="15" height="15" rx="3" fill="#eef0f4"><title>0 on Jan 8, 2026</title></rect><rect x="393.5" y="346" width="15" height="15" rx="3" fill="#eef0f4"><title>0 on Jan 9, 2026</title></rect><rect x="393.5" y="364" width="15" height="15" rx="3" fill="#eef0f4"><title>0 on Jan 10, 2026</title></rect><rect x="411.5" y="256" width="15" height="15" rx="3" fill="#eef0f4"><title>0 on Jan 11, 2026</title></rect><rect x="411.5" y="274" width="15" height="15" rx="3" fill="#eef0f4"><title>0 on Jan 12, 2026</title></rect><rect x="411.5" y="292" width="15" height="15" rx="3" fill="#eef0f4"><title>0 on Jan 13, 2026</title></rect><rect x="411.5" y="310" width="15" height="15" rx="3" fill="#eef0f4"><title>0 on Jan 14, 2026</title></rect><rect x="411.5" y="328" width="15" height="15" rx="3" fill="#eef0f4"><title>0 on Jan 15, 2026</title></rect><rect x="411.5" y="346" width="15" height="15" rx="3" fill="#eef0f4"><title>0 on Jan 16, 2026</title></rect><rect x="411.5" y="364" width="15" height="15" rx="3" fill="#eef0f4"><title>0 on Jan 17, 2026</title></rect><rect x="429.5" y="256" width="15" height="15" rx="3" fill="#eef0f4"><title>0 on Jan 18, 2026</title></rect><rect x="429.5" y="274" width="15" height="15" rx="3" fill="#eef0f4"><title>0 on Jan 19, 2026</title></rect><rect x="429.5" y="292" width="15" height="15" rx="3" fill="#eef0f4"><title>0 on Jan 20, 2026</title></rect><rect x="429.5" y="310" width="15" height="15" rx="3" fill="#eef0f4"><title>0 on Jan 21, 2026</title></rect><rect x="429.5" y="328" width="15" height="15" rx="3" fill="#eef0f4"><title>0 on Jan 22, 2026</title></rect><rect x="429.5" y="346" width="15" height="15" rx="3" fill="#eef0f4"><title>0 on Jan 23, 2026</title></rect><rect x="429.5" y="364" width="15" height="15" rx="3" fill="#eef0f4"><title>0 on Jan 24, 2026</title></rect><rect x="447.5" y="256" width="15" height="15" rx="3" fill="#eef0f4"><title>0 on Jan 25, 2026</title></rect><rect x="447.5" y="274" width="15" height="15" rx="3" fill="#eef0f4"><title>0 on Jan 26, 2026</title></rect><rect x="447.5" y="292" width="15" height="15" rx="3" fill="#eef0f4"><title>0 on Jan 27, 2026</title></rect><rect x="447.5" y="310" width="15" height="15" rx="3" fill="#eef0f4"><title>0 on Jan 28, 2026</title></rect><rect x="447.5" y="328" width="15" height="15" rx="3" fill="#eef0f4"><title>0 on Jan 29, 2026</title></rect><rect x="447.5" y="346" width="15" height="15" rx="3" fill="#eef0f4"><title>0 on Jan 30, 2026</title></rect><rect x="447.5" y="364" width="15" height="15" rx="3" fill="#eef0f4"><title>0 on Jan 31, 2026</title></rect><rect x="465.5" y="256" width="15" height="15" rx="3" fill="#eef0f4"><title>0 on Feb 1, 2026</title></rect><rect x="465.5" y="274" width="15" height="15" rx="3" fill="#eef0f4"><title>0 on Feb 2, 2026</title></rect><rect x="465.5" y="292" width="15" height="15" rx="3" fill="#eef0f4"><title>0 on Feb 3, 2026</title></rect><rect x="465.5" y="310" width="15" height="15" rx="3" fill="#eef0f4"><title>0 on Feb 4, 2026</title></rect><rect x="465.5" y="328" width="15" height="15" rx="3" fill="#eef0f4"><title>0 on Feb 5, 2026</title></rect><rect x="465.5" y="346" width="15" height="15" rx="3" fill="#eef0f4"><title>0 on Feb 6, 2026</title></rect><rect x="465.5" y="364" width="15" height="15" rx="3" fill="#eef0f4"><title>0 on Feb 7, 2026</title></rect><rect x="483.5" y="256" width="15" height="15" rx="3" fill="#eef0f4"><title>0 on Feb 8, 2026</title></rect><rect x="483.5" y="274" width="15" height="15" rx="3" fill="#eef0f4"><title>0 on Feb 9, 2026</title></rect><rect x="483.5" y="292" width="15" height="15" rx="3" fill="#eef0f4"><title>0 on Feb 10, 2026</title></rect><rect x="483.5" y="310" width="15" height="15" rx="3" fill="#eef0f4"><title>0 on Feb 11, 2026</title></rect><rect x="483.5" y="328" width="15" height="15" rx="3" fill="#eef0f4"><title>0 on Feb 12, 2026</title></rect><rect x="483.5" y="346" width="15" height="15" rx="3" fill="#eef0f4"><title>0 on Feb 13, 2026</title></rect><rect x="483.5" y="364" width="15" height="15" rx="3" fill="#eef0f4"><title>0 on Feb 14, 2026</title></rect><rect x="501.5" y="256" width="15" height="15" rx="3" fill="#eef0f4"><title>0 on Feb 15, 2026</title></rect><rect x="501.5" y="274" width="15" height="15" rx="3" fill="#eef0f4"><title>0 on Feb 16, 2026</title></rect><rect x="501.5" y="292" width="15" height="15" rx="3" fill="#b7d3f6"><title>2 on Feb 17, 2026</title></rect><rect x="501.5" y="310" width="15" height="15" rx="3" fill="#b7d3f6"><title>2 on Feb 18, 2026</title></rect><rect x="501.5" y="328" width="15" height="15" rx="3" fill="#b7d3f6"><title>1 on Feb 19, 2026</title></rect><rect x="501.5" y="346" width="15" height="15" rx="3" fill="#b7d3f6"><title>1 on Feb 20, 2026</title></rect><rect x="501.5" y="364" width="15" height="15" rx="3" fill="#b7d3f6"><title>1 on Feb 21, 2026</title></rect><rect x="519.5" y="256" width="15" height="15" rx="3" fill="#eef0f4"><title>0 on Feb 22, 2026</title></rect><rect x="519.5" y="274" width="15" height="15" rx="3" fill="#2a78d6"><title>8 on Feb 23, 2026</title></rect><rect x="519.5" y="292" width="15" height="15" rx="3" fill="#6da7ec"><title>6 on Feb 24, 2026</title></rect><rect x="519.5" y="310" width="15" height="15" rx="3" fill="#6da7ec"><title>4 on Feb 25, 2026</title></rect><rect x="519.5" y="328" width="15" height="15" rx="3" fill="#b7d3f6"><title>1 on Feb 26, 2026</title></rect><rect x="519.5" y="346" width="15" height="15" rx="3" fill="#eef0f4"><title>0 on Feb 27, 2026</title></rect><rect x="519.5" y="364" width="15" height="15" rx="3" fill="#eef0f4"><title>0 on Feb 28, 2026</title></rect><rect x="537.5" y="256" width="15" height="15" rx="3" fill="#eef0f4"><title>0 on Mar 1, 2026</title></rect><rect x="537.5" y="274" width="15" height="15" rx="3" fill="#eef0f4"><title>0 on Mar 2, 2026</title></rect><rect x="537.5" y="292" width="15" height="15" rx="3" fill="#eef0f4"><title>0 on Mar 3, 2026</title></rect><rect x="537.5" y="310" width="15" height="15" rx="3" fill="#eef0f4"><title>0 on Mar 4, 2026</title></rect><rect x="537.5" y="328" width="15" height="15" rx="3" fill="#eef0f4"><title>0 on Mar 5, 2026</title></rect><rect x="537.5" y="346" width="15" height="15" rx="3" fill="#eef0f4"><title>0 on Mar 6, 2026</title></rect><rect x="537.5" y="364" width="15" height="15" rx="3" fill="#eef0f4"><title>0 on Mar 7, 2026</title></rect><rect x="555.5" y="256" width="15" height="15" rx="3" fill="#b7d3f6"><title>2 on Mar 8, 2026</title></rect><rect x="555.5" y="274" width="15" height="15" rx="3" fill="#eef0f4"><title>0 on Mar 9, 2026</title></rect><rect x="555.5" y="292" width="15" height="15" rx="3" fill="#eef0f4"><title>0 on Mar 10, 2026</title></rect><rect x="555.5" y="310" width="15" height="15" rx="3" fill="#eef0f4"><title>0 on Mar 11, 2026</title></rect><rect x="555.5" y="328" width="15" height="15" rx="3" fill="#eef0f4"><title>0 on Mar 12, 2026</title></rect><rect x="555.5" y="346" width="15" height="15" rx="3" fill="#b7d3f6"><title>2 on Mar 13, 2026</title></rect><rect x="555.5" y="364" width="15" height="15" rx="3" fill="#6da7ec"><title>6 on Mar 14, 2026</title></rect><rect x="573.5" y="256" width="15" height="15" rx="3" fill="#b7d3f6"><title>3 on Mar 15, 2026</title></rect><rect x="573.5" y="274" width="15" height="15" rx="3" fill="#b7d3f6"><title>2 on Mar 16, 2026</title></rect><rect x="573.5" y="292" width="15" height="15" rx="3" fill="#eef0f4"><title>0 on Mar 17, 2026</title></rect><rect x="573.5" y="310" width="15" height="15" rx="3" fill="#eef0f4"><title>0 on Mar 18, 2026</title></rect><rect x="573.5" y="328" width="15" height="15" rx="3" fill="#eef0f4"><title>0 on Mar 19, 2026</title></rect><rect x="573.5" y="346" width="15" height="15" rx="3" fill="#b7d3f6"><title>2 on Mar 20, 2026</title></rect><rect x="573.5" y="364" width="15" height="15" rx="3" fill="#b7d3f6"><title>1 on Mar 21, 2026</title></rect><rect x="591.5" y="256" width="15" height="15" rx="3" fill="#eef0f4"><title>0 on Mar 22, 2026</title></rect><rect x="591.5" y="274" width="15" height="15" rx="3" fill="#6da7ec"><title>4 on Mar 23, 2026</title></rect><rect x="591.5" y="292" width="15" height="15" rx="3" fill="#b7d3f6"><title>3 on Mar 24, 2026</title></rect><rect x="591.5" y="310" width="15" height="15" rx="3" fill="#6da7ec"><title>6 on Mar 25, 2026</title></rect><rect x="591.5" y="328" width="15" height="15" rx="3" fill="#b7d3f6"><title>2 on Mar 26, 2026</title></rect><rect x="591.5" y="346" width="15" height="15" rx="3" fill="#2a78d6"><title>12 on Mar 27, 2026</title></rect><rect x="591.5" y="364" width="15" height="15" rx="3" fill="#b7d3f6"><title>1 on Mar 28, 2026</title></rect><rect x="609.5" y="256" width="15" height="15" rx="3" fill="#2a78d6"><title>9 on Mar 29, 2026</title></rect><rect x="609.5" y="274" width="15" height="15" rx="3" fill="#6da7ec"><title>6 on Mar 30, 2026</title></rect><rect x="609.5" y="292" width="15" height="15" rx="3" fill="#2a78d6"><title>8 on Mar 31, 2026</title></rect><rect x="609.5" y="310" width="15" height="15" rx="3" fill="#eef0f4"><title>0 on Apr 1, 2026</title></rect><rect x="609.5" y="328" width="15" height="15" rx="3" fill="#6da7ec"><title>7 on Apr 2, 2026</title></rect><rect x="609.5" y="346" width="15" height="15" rx="3" fill="#184f95"><title>17 on Apr 3, 2026</title></rect><rect x="609.5" y="364" width="15" height="15" rx="3" fill="#b7d3f6"><title>3 on Apr 4, 2026</title></rect><rect x="627.5" y="256" width="15" height="15" rx="3" fill="#b7d3f6"><title>1 on Apr 5, 2026</title></rect><rect x="627.5" y="274" width="15" height="15" rx="3" fill="#184f95"><title>19 on Apr 6, 2026</title></rect><rect x="627.5" y="292" width="15" height="15" rx="3" fill="#184f95"><title>23 on Apr 7, 2026</title></rect><rect x="627.5" y="310" width="15" height="15" rx="3" fill="#184f95"><title>20 on Apr 8, 2026</title></rect><rect x="627.5" y="328" width="15" height="15" rx="3" fill="#2a78d6"><title>13 on Apr 9, 2026</title></rect><rect x="627.5" y="346" width="15" height="15" rx="3" fill="#b7d3f6"><title>1 on Apr 10, 2026</title></rect><rect x="627.5" y="364" width="15" height="15" rx="3" fill="#b7d3f6"><title>2 on Apr 11, 2026</title></rect><rect x="645.5" y="256" width="15" height="15" rx="3" fill="#eef0f4"><title>0 on Apr 12, 2026</title></rect><rect x="645.5" y="274" width="15" height="15" rx="3" fill="#184f95"><title>31 on Apr 13, 2026</title></rect><rect x="645.5" y="292" width="15" height="15" rx="3" fill="#184f95"><title>17 on Apr 14, 2026</title></rect><rect x="645.5" y="310" width="15" height="15" rx="3" fill="#184f95"><title>22 on Apr 15, 2026</title></rect><rect x="645.5" y="328" width="15" height="15" rx="3" fill="#184f95"><title>16 on Apr 16, 2026</title></rect><rect x="645.5" y="346" width="15" height="15" rx="3" fill="#2a78d6"><title>10 on Apr 17, 2026</title></rect><rect x="645.5" y="364" width="15" height="15" rx="3" fill="#eef0f4"><title>0 on Apr 18, 2026</title></rect><rect x="663.5" y="256" width="15" height="15" rx="3" fill="#eef0f4"><title>0 on Apr 19, 2026</title></rect><rect x="663.5" y="274" width="15" height="15" rx="3" fill="#184f95"><title>16 on Apr 20, 2026</title></rect><rect x="663.5" y="292" width="15" height="15" rx="3" fill="#2a78d6"><title>11 on Apr 21, 2026</title></rect><rect x="663.5" y="310" width="15" height="15" rx="3" fill="#184f95"><title>18 on Apr 22, 2026</title></rect><rect x="663.5" y="328" width="15" height="15" rx="3" fill="#6da7ec"><title>5 on Apr 23, 2026</title></rect><rect x="663.5" y="346" width="15" height="15" rx="3" fill="#2a78d6"><title>10 on Apr 24, 2026</title></rect><rect x="663.5" y="364" width="15" height="15" rx="3" fill="#eef0f4"><title>0 on Apr 25, 2026</title></rect><rect x="681.5" y="256" width="15" height="15" rx="3" fill="#eef0f4"><title>0 on Apr 26, 2026</title></rect><rect x="681.5" y="274" width="15" height="15" rx="3" fill="#2a78d6"><title>9 on Apr 27, 2026</title></rect><rect x="681.5" y="292" width="15" height="15" rx="3" fill="#2a78d6"><title>10 on Apr 28, 2026</title></rect><rect x="681.5" y="310" width="15" height="15" rx="3" fill="#184f95"><title>16 on Apr 29, 2026</title></rect><rect x="681.5" y="328" width="15" height="15" rx="3" fill="#184f95"><title>19 on Apr 30, 2026</title></rect><rect x="681.5" y="346" width="15" height="15" rx="3" fill="#6da7ec"><title>4 on May 1, 2026</title></rect><rect x="681.5" y="364" width="15" height="15" rx="3" fill="#eef0f4"><title>0 on May 2, 2026</title></rect><rect x="699.5" y="256" width="15" height="15" rx="3" fill="#eef0f4"><title>0 on May 3, 2026</title></rect><rect x="699.5" y="274" width="15" height="15" rx="3" fill="#184f95"><title>36 on May 4, 2026</title></rect><rect x="699.5" y="292" width="15" height="15" rx="3" fill="#6da7ec"><title>7 on May 5, 2026</title></rect><rect x="699.5" y="310" width="15" height="15" rx="3" fill="#184f95"><title>18 on May 6, 2026</title></rect><rect x="699.5" y="328" width="15" height="15" rx="3" fill="#2a78d6"><title>14 on May 7, 2026</title></rect><rect x="699.5" y="346" width="15" height="15" rx="3" fill="#184f95"><title>17 on May 8, 2026</title></rect><rect x="699.5" y="364" width="15" height="15" rx="3" fill="#eef0f4"><title>0 on May 9, 2026</title></rect><rect x="717.5" y="256" width="15" height="15" rx="3" fill="#eef0f4"><title>0 on May 10, 2026</title></rect><rect x="717.5" y="274" width="15" height="15" rx="3" fill="#6da7ec"><title>5 on May 11, 2026</title></rect><rect x="717.5" y="292" width="15" height="15" rx="3" fill="#b7d3f6"><title>2 on May 12, 2026</title></rect><rect x="717.5" y="310" width="15" height="15" rx="3" fill="#2a78d6"><title>12 on May 13, 2026</title></rect><rect x="717.5" y="328" width="15" height="15" rx="3" fill="#2a78d6"><title>9 on May 14, 2026</title></rect><rect x="717.5" y="346" width="15" height="15" rx="3" fill="#6da7ec"><title>6 on May 15, 2026</title></rect><rect x="717.5" y="364" width="15" height="15" rx="3" fill="#eef0f4"><title>0 on May 16, 2026</title></rect><rect x="735.5" y="256" width="15" height="15" rx="3" fill="#b7d3f6"><title>2 on May 17, 2026</title></rect><rect x="735.5" y="274" width="15" height="15" rx="3" fill="#6da7ec"><title>6 on May 18, 2026</title></rect><rect x="735.5" y="292" width="15" height="15" rx="3" fill="#2a78d6"><title>10 on May 19, 2026</title></rect><rect x="735.5" y="310" width="15" height="15" rx="3" fill="#2a78d6"><title>9 on May 20, 2026</title></rect><rect x="735.5" y="328" width="15" height="15" rx="3" fill="#6da7ec"><title>4 on May 21, 2026</title></rect><rect x="735.5" y="346" width="15" height="15" rx="3" fill="#6da7ec"><title>5 on May 22, 2026</title></rect><rect x="735.5" y="364" width="15" height="15" rx="3" fill="#eef0f4"><title>0 on May 23, 2026</title></rect><rect x="753.5" y="256" width="15" height="15" rx="3" fill="#eef0f4"><title>0 on May 24, 2026</title></rect><rect x="753.5" y="274" width="15" height="15" rx="3" fill="#2a78d6"><title>9 on May 25, 2026</title></rect><rect x="753.5" y="292" width="15" height="15" rx="3" fill="#2a78d6"><title>8 on May 26, 2026</title></rect><rect x="753.5" y="310" width="15" height="15" rx="3" fill="#184f95"><title>17 on May 27, 2026</title></rect><rect x="753.5" y="328" width="15" height="15" rx="3" fill="#6da7ec"><title>7 on May 28, 2026</title></rect><rect x="753.5" y="346" width="15" height="15" rx="3" fill="#b7d3f6"><title>3 on May 29, 2026</title></rect><rect x="753.5" y="364" width="15" height="15" rx="3" fill="#6da7ec"><title>5 on May 30, 2026</title></rect><rect x="771.5" y="256" width="15" height="15" rx="3" fill="#2a78d6"><title>11 on May 31, 2026</title></rect><rect x="771.5" y="274" width="15" height="15" rx="3" fill="#184f95"><title>24 on Jun 1, 2026</title></rect><rect x="771.5" y="292" width="15" height="15" rx="3" fill="#b7d3f6"><title>1 on Jun 2, 2026</title></rect><rect x="771.5" y="310" width="15" height="15" rx="3" fill="#6da7ec"><title>6 on Jun 3, 2026</title></rect><rect x="771.5" y="328" width="15" height="15" rx="3" fill="#b7d3f6"><title>1 on Jun 4, 2026</title></rect><rect x="771.5" y="346" width="15" height="15" rx="3" fill="#2a78d6"><title>10 on Jun 5, 2026</title></rect><rect x="771.5" y="364" width="15" height="15" rx="3" fill="#6da7ec"><title>7 on Jun 6, 2026</title></rect><rect x="789.5" y="256" width="15" height="15" rx="3" fill="#6da7ec"><title>6 on Jun 7, 2026</title></rect><rect x="789.5" y="274" width="15" height="15" rx="3" fill="#eef0f4"><title>0 on Jun 8, 2026</title></rect><rect x="789.5" y="292" width="15" height="15" rx="3" fill="#eef0f4"><title>0 on Jun 9, 2026</title></rect><rect x="789.5" y="310" width="15" height="15" rx="3" fill="#eef0f4"><title>0 on Jun 10, 2026</title></rect><rect x="789.5" y="328" width="15" height="15" rx="3" fill="#6da7ec"><title>6 on Jun 11, 2026</title></rect><rect x="789.5" y="346" width="15" height="15" rx="3" fill="#184f95"><title>16 on Jun 12, 2026</title></rect><rect x="789.5" y="364" width="15" height="15" rx="3" fill="#b7d3f6"><title>1 on Jun 13, 2026</title></rect><rect x="807.5" y="256" width="15" height="15" rx="3" fill="#eef0f4"><title>0 on Jun 14, 2026</title></rect><rect x="807.5" y="274" width="15" height="15" rx="3" fill="#2a78d6"><title>10 on Jun 15, 2026</title></rect><rect x="807.5" y="292" width="15" height="15" rx="3" fill="#6da7ec"><title>5 on Jun 16, 2026</title></rect><rect x="807.5" y="310" width="15" height="15" rx="3" fill="#b7d3f6"><title>2 on Jun 17, 2026</title></rect><rect x="807.5" y="328" width="15" height="15" rx="3" fill="#6da7ec"><title>5 on Jun 18, 2026</title></rect><rect x="807.5" y="346" width="15" height="15" rx="3" fill="#b7d3f6"><title>2 on Jun 19, 2026</title></rect><rect x="807.5" y="364" width="15" height="15" rx="3" fill="#eef0f4"><title>0 on Jun 20, 2026</title></rect><rect x="825.5" y="256" width="15" height="15" rx="3" fill="#eef0f4"><title>0 on Jun 21, 2026</title></rect><rect x="825.5" y="274" width="15" height="15" rx="3" fill="#2a78d6"><title>10 on Jun 22, 2026</title></rect><rect x="825.5" y="292" width="15" height="15" rx="3" fill="#6da7ec"><title>4 on Jun 23, 2026</title></rect><rect x="825.5" y="310" width="15" height="15" rx="3" fill="#184f95"><title>16 on Jun 24, 2026</title></rect><rect x="825.5" y="328" width="15" height="15" rx="3" fill="#2a78d6"><title>10 on Jun 25, 2026</title></rect><rect x="825.5" y="346" width="15" height="15" rx="3" fill="#6da7ec"><title>4 on Jun 26, 2026</title></rect><rect x="825.5" y="364" width="15" height="15" rx="3" fill="#b7d3f6"><title>2 on Jun 27, 2026</title></rect><rect x="843.5" y="256" width="15" height="15" rx="3" fill="#eef0f4"><title>0 on Jun 28, 2026</title></rect><rect x="843.5" y="274" width="15" height="15" rx="3" fill="#184f95"><title>17 on Jun 29, 2026</title></rect><rect x="843.5" y="292" width="15" height="15" rx="3" fill="#2a78d6"><title>9 on Jun 30, 2026</title></rect><rect x="843.5" y="310" width="15" height="15" rx="3" fill="#6da7ec"><title>4 on Jul 1, 2026</title></rect><rect x="843.5" y="328" width="15" height="15" rx="3" fill="#184f95"><title>22 on Jul 2, 2026</title></rect><rect x="843.5" y="346" width="15" height="15" rx="3" fill="#184f95"><title>20 on Jul 3, 2026</title></rect><rect x="843.5" y="364" width="15" height="15" rx="3" fill="#2a78d6"><title>8 on Jul 4, 2026</title></rect><rect x="861.5" y="256" width="15" height="15" rx="3" fill="#eef0f4"><title>0 on Jul 5, 2026</title></rect><rect x="861.5" y="274" width="15" height="15" rx="3" fill="#2a78d6"><title>8 on Jul 6, 2026</title></rect><rect x="861.5" y="292" width="15" height="15" rx="3" fill="#6da7ec"><title>6 on Jul 7, 2026</title></rect><rect x="861.5" y="310" width="15" height="15" rx="3" fill="#2a78d6"><title>9 on Jul 8, 2026</title></rect><rect x="861.5" y="328" width="15" height="15" rx="3" fill="#6da7ec"><title>5 on Jul 9, 2026</title></rect><rect x="861.5" y="346" width="15" height="15" rx="3" fill="#b7d3f6"><title>3 on Jul 10, 2026</title></rect><rect x="861.5" y="364" width="15" height="15" rx="3" fill="#2a78d6"><title>12 on Jul 11, 2026</title></rect><rect x="879.5" y="256" width="15" height="15" rx="3" fill="#eef0f4"><title>0 on Jul 12, 2026</title></rect><rect x="879.5" y="274" width="15" height="15" rx="3" fill="#2a78d6"><title>8 on Jul 13, 2026</title></rect><rect x="879.5" y="292" width="15" height="15" rx="3" fill="#6da7ec"><title>5 on Jul 14, 2026</title></rect><rect x="879.5" y="310" width="15" height="15" rx="3" fill="#b7d3f6"><title>1 on Jul 15, 2026</title></rect><rect x="879.5" y="328" width="15" height="15" rx="3" fill="#b7d3f6"><title>1 on Jul 16, 2026</title></rect><rect x="879.5" y="346" width="15" height="15" rx="3" fill="#b7d3f6"><title>2 on Jul 17, 2026</title></rect><rect x="879.5" y="364" width="15" height="15" rx="3" fill="#eef0f4"><title>0 on Jul 18, 2026</title></rect><rect x="897.5" y="256" width="15" height="15" rx="3" fill="#eef0f4"><title>0 on Jul 19, 2026</title></rect><rect x="897.5" y="274" width="15" height="15" rx="3" fill="#b7d3f6"><title>3 on Jul 20, 2026</title></rect><rect x="897.5" y="292" width="15" height="15" rx="3" fill="#eef0f4"><title>0 on Jul 21, 2026</title></rect><rect x="897.5" y="310" width="15" height="15" rx="3" fill="#6da7ec"><title>7 on Jul 22, 2026</title></rect><rect x="897.5" y="328" width="15" height="15" rx="3" fill="#eef0f4"><title>0 on Jul 23, 2026</title></rect><rect x="897.5" y="346" width="15" height="15" rx="3" fill="#b7d3f6"><title>1 on Jul 24, 2026</title></rect><rect x="897.5" y="364" width="15" height="15" rx="3" fill="#eef0f4"><title>0 on Jul 25, 2026</title></rect><rect x="915.5" y="256" width="15" height="15" rx="3" fill="#6da7ec"><title>4 on Jul 26, 2026</title></rect><rect x="915.5" y="274" width="15" height="15" rx="3" fill="#184f95"><title>22 on Jul 27, 2026</title></rect><rect x="915.5" y="292" width="15" height="15" rx="3" fill="#6da7ec"><title>5 on Jul 28, 2026</title></rect><rect x="915.5" y="310" width="15" height="15" rx="3" fill="#184f95"><title>19 on Jul 29, 2026</title></rect><rect x="915.5" y="328" width="15" height="15" rx="3" fill="#184f95"><title>24 on Jul 30, 2026</title></rect><rect x="915.5" y="346" width="15" height="15" rx="3" fill="#6da7ec"><title>4 on Jul 31, 2026</title></rect><rect x="915.5" y="364" width="15" height="15" rx="3" fill="#b7d3f6"><title>2 on Aug 1, 2026</title></rect><rect x="933.5" y="256" width="15" height="15" rx="3" fill="#eef0f4"><title>0 on Aug 2, 2026</title></rect><rect x="933.5" y="274" width="15" height="15" rx="3" fill="#184f95"><title>17 on Aug 3, 2026</title></rect><rect x="933.5" y="292" width="15" height="15" rx="3" fill="#b7d3f6"><title>1 on Aug 4, 2026</title></rect><rect x="933.5" y="310" width="15" height="15" rx="3" fill="#6da7ec"><title>6 on Aug 5, 2026</title></rect><rect x="933.5" y="328" width="15" height="15" rx="3" fill="#184f95"><title>38 on Aug 6, 2026</title></rect><rect x="933.5" y="346" width="15" height="15" rx="3" fill="#184f95"><title>23 on Aug 7, 2026</title></rect><rect x="933.5" y="364" width="15" height="15" rx="3" fill="#b7d3f6"><title>3 on Aug 8, 2026</title></rect><rect x="951.5" y="256" width="15" height="15" rx="3" fill="#b7d3f6"><title>1 on Aug 9, 2026</title></rect><rect x="951.5" y="274" width="15" height="15" rx="3" fill="#eef0f4"><title>0 on Aug 10, 2026</title></rect><rect x="951.5" y="292" width="15" height="15" rx="3" fill="#184f95"><title>21 on Aug 11, 2026</title></rect><rect x="951.5" y="310" width="15" height="15" rx="3" fill="#2a78d6"><title>11 on Aug 12, 2026</title></rect><rect x="951.5" y="328" width="15" height="15" rx="3" fill="#2a78d6"><title>13 on Aug 13, 2026</title></rect><rect x="951.5" y="346" width="15" height="15" rx="3" fill="#2a78d6"><title>12 on Aug 14, 2026</title></rect><rect x="951.5" y="364" width="15" height="15" rx="3" fill="#2a78d6"><title>15 on Aug 15, 2026</title></rect><rect x="969.5" y="256" width="15" height="15" rx="3" fill="#eef0f4"><title>0 on Aug 16, 2026</title></rect><rect x="969.5" y="274" width="15" height="15" rx="3" fill="#b7d3f6"><title>1 on Aug 17, 2026</title></rect><rect x="969.5" y="292" width="15" height="15" rx="3" fill="#eef0f4"><title>0 on Aug 18, 2026</title></rect><rect x="969.5" y="310" width="15" height="15" rx="3" fill="#184f95"><title>23 on Aug 19, 2026</title></rect><rect x="969.5" y="328" width="15" height="15" rx="3" fill="#2a78d6"><title>15 on Aug 20, 2026</title></rect><rect x="969.5" y="346" width="15" height="15" rx="3" fill="#184f95"><title>39 on Aug 21, 2026</title></rect><rect x="969.5" y="364" width="15" height="15" rx="3" fill="#2a78d6"><title>8 on Aug 22, 2026</title></rect><rect x="987.5" y="256" width="15" height="15" rx="3" fill="#eef0f4"><title>0 on Aug 23, 2026</title></rect><rect x="987.5" y="274" width="15" height="15" rx="3" fill="#eef0f4"><title>0 on Aug 24, 2026</title></rect><rect x="987.5" y="292" width="15" height="15" rx="3" fill="#184f95"><title>16 on Aug 25, 2026</title></rect><rect x="987.5" y="310" width="15" height="15" rx="3" fill="#184f95"><title>18 on Aug 26, 2026</title></rect><rect x="987.5" y="328" width="15" height="15" rx="3" fill="#184f95"><title>40 on Aug 27, 2026</title></rect><rect x="987.5" y="346" width="15" height="15" rx="3" fill="#184f95"><title>25 on Aug 28, 2026</title></rect><rect x="987.5" y="364" width="15" height="15" rx="3" fill="#2a78d6"><title>9 on Aug 29, 2026</title></rect><rect x="1005.5" y="256" width="15" height="15" rx="3" fill="#b7d3f6"><title>1 on Aug 30, 2026</title></rect><rect x="1005.5" y="274" width="15" height="15" rx="3" fill="#eef0f4"><title>0 on Aug 31, 2026</title></rect><rect x="1005.5" y="292" width="15" height="15" rx="3" fill="#2a78d6"><title>14 on Sep 1, 2026</title></rect><rect x="1005.5" y="310" width="15" height="15" rx="3" fill="#184f95"><title>16 on Sep 2, 2026</title></rect><rect x="1005.5" y="328" width="15" height="15" rx="3" fill="#184f95"><title>44 on Sep 3, 2026</title></rect><rect x="1005.5" y="346" width="15" height="15" rx="3" fill="#184f95"><title>35 on Sep 4, 2026</title></rect><rect x="1005.5" y="364" width="15" height="15" rx="3" fill="#184f95"><title>49 on Sep 5, 2026</title></rect><rect x="1023.5" y="256" width="15" height="15" rx="3" fill="#eef0f4"><title>0 on Sep 6, 2026</title></rect><rect x="1023.5" y="274" width="15" height="15" rx="3" fill="#eef0f4"><title>0 on Sep 7, 2026</title></rect><rect x="1023.5" y="292" width="15" height="15" rx="3" fill="#184f95"><title>20 on Sep 8, 2026</title></rect><rect x="1023.5" y="310" width="15" height="15" rx="3" fill="#184f95"><title>17 on Sep 9, 2026</title></rect><rect x="1023.5" y="328" width="15" height="15" rx="3" fill="#184f95"><title>16 on Sep 10, 2026</title></rect><rect x="1023.5" y="346" width="15" height="15" rx="3" fill="#184f95"><title>18 on Sep 11, 2026</title></rect><rect x="1023.5" y="364" width="15" height="15" rx="3" fill="#2a78d6"><title>12 on Sep 12, 2026</title></rect><rect x="1041.5" y="256" width="15" height="15" rx="3" fill="#eef0f4"><title>0 on Sep 13, 2026</title></rect><rect x="1041.5" y="274" width="15" height="15" rx="3" fill="#eef0f4"><title>0 on Sep 14, 2026</title></rect><rect x="1041.5" y="292" width="15" height="15" rx="3" fill="#6da7ec"><title>7 on Sep 15, 2026</title></rect><rect x="1041.5" y="310" width="15" height="15" rx="3" fill="#184f95"><title>16 on Sep 16, 2026</title></rect><rect x="1041.5" y="328" width="15" height="15" rx="3" fill="#6da7ec"><title>7 on Sep 17, 2026</title></rect><rect x="1041.5" y="346" width="15" height="15" rx="3" fill="#2a78d6"><title>12 on Sep 18, 2026</title></rect><rect x="1041.5" y="364" width="15" height="15" rx="3" fill="#184f95"><title>31 on Sep 19, 2026</title></rect><rect x="1059.5" y="256" width="15" height="15" rx="3" fill="#eef0f4"><title>0 on Sep 20, 2026</title></rect><rect x="1059.5" y="274" width="15" height="15" rx="3" fill="#eef0f4"><title>0 on Sep 21, 2026</title></rect><rect x="1059.5" y="292" width="15" height="15" rx="3" fill="#184f95"><title>20 on Sep 22, 2026</title></rect><rect x="1059.5" y="310" width="15" height="15" rx="3" fill="#6da7ec"><title>4 on Sep 23, 2026</title></rect><rect x="1059.5" y="328" width="15" height="15" rx="3" fill="#184f95"><title>17 on Sep 24, 2026</title></rect><rect x="1059.5" y="346" width="15" height="15" rx="3" fill="#2a78d6"><title>13 on Sep 25, 2026</title></rect><rect x="1059.5" y="364" width="15" height="15" rx="3" fill="#2a78d6"><title>8 on Sep 26, 2026</title></rect><rect x="1077.5" y="256" width="15" height="15" rx="3" fill="#2a78d6"><title>15 on Sep 27, 2026</title></rect><rect x="1077.5" y="274" width="15" height="15" rx="3" fill="#184f95"><title>75 on Sep 28, 2026</title></rect><rect x="1077.5" y="292" width="15" height="15" rx="3" fill="#2a78d6"><title>10 on Sep 29, 2026</title></rect><rect x="1077.5" y="310" width="15" height="15" rx="3" fill="#6da7ec"><title>7 on Sep 30, 2026</title></rect><rect x="1077.5" y="328" width="15" height="15" rx="3" fill="#184f95"><title>22 on Oct 1, 2026</title></rect><rect x="1077.5" y="346" width="15" height="15" rx="3" fill="#2a78d6"><title>10 on Oct 2, 2026</title></rect><rect x="1077.5" y="364" width="15" height="15" rx="3" fill="#2a78d6"><title>9 on Oct 3, 2026</title></rect>
  <text x="994.5" y="409" text-anchor="end" font-size="12" fill="#52514e">Less</text><rect x="1005.5" y="398" width="15" height="15" rx="3" fill="#eef0f4"/><rect x="1023.5" y="398" width="15" height="15" rx="3" fill="#b7d3f6"/><rect x="1041.5" y="398" width="15" height="15" rx="3" fill="#6da7ec"/><rect x="1059.5" y="398" width="15" height="15" rx="3" fill="#2a78d6"/><rect x="1077.5" y="398" width="15" height="15" rx="3" fill="#184f95"/><text x="1100.5" y="409" font-size="12" fill="#52514e">More</text>
  <text x="40" y="424" font-size="15" fill="#52514e">Languages across original repos (by code size)</text>
  <rect x="40" y="440" width="781.5721115973357" height="12" rx="4" fill="#2a78d6"><title>TypeScript 70.0%</title></rect><rect x="823.5721115973357" y="440" width="126.77593233036333" height="12" rx="4" fill="#eb6834"><title>JavaScript 11.5%</title></rect><rect x="952.3480439276991" y="440" width="93.46926530266357" height="12" rx="4" fill="#1baf7a"><title>Dart 8.5%</title></rect><rect x="1047.8173092303628" y="440" width="53.72882804144058" height="12" rx="4" fill="#eda100"><title>CSS 5.0%</title></rect><rect x="1103.5461372718032" y="440" width="31.305543813622677" height="12" rx="4" fill="#e87ba4"><title>HTML 3.0%</title></rect><rect x="1136.851681085426" y="440" width="21.14831891457411" height="12" rx="4" fill="#b4b8c0"><title>Other 2.1%</title></rect>
  <g transform="translate(40,480)"><circle cx="6" cy="-5" r="6" fill="#2a78d6"/><text x="18" y="0" font-size="15" fill="#0b0b0b">TypeScript<tspan fill="#52514e" dx="7">70%</tspan></text></g><g transform="translate(203.8,480)"><circle cx="6" cy="-5" r="6" fill="#eb6834"/><text x="18" y="0" font-size="15" fill="#0b0b0b">JavaScript<tspan fill="#52514e" dx="7">11%</tspan></text></g><g transform="translate(367.6,480)"><circle cx="6" cy="-5" r="6" fill="#1baf7a"/><text x="18" y="0" font-size="15" fill="#0b0b0b">Dart<tspan fill="#52514e" dx="7">9%</tspan></text></g><g transform="translate(471.20000000000005,480)"><circle cx="6" cy="-5" r="6" fill="#eda100"/><text x="18" y="0" font-size="15" fill="#0b0b0b">CSS<tspan fill="#52514e" dx="7">5%</tspan></text></g><g transform="translate(566.2,480)"><circle cx="6" cy="-5" r="6" fill="#e87ba4"/><text x="18" y="0" font-size="15" fill="#0b0b0b">HTML<tspan fill="#52514e" dx="7">3%</tspan></text></g><g transform="translate(669.8000000000001,480)"><circle cx="6" cy="-5" r="6" fill="#b4b8c0"/><text x="18" y="0" font-size="15" fill="#0b0b0b">Other<tspan fill="#52514e" dx="7">2%</tspan></text></g>
</svg>
